<svg width="347" height="45" viewBox="0 0 347 45" fill="none" xmlns="http://www.w3.org/2000/svg">
<path d="M75.0049 33.2129C73.2769 33.2129 71.6929 33.1769 70.2529 33.1049C68.8369 33.0089 67.6969 32.8529 66.8329 32.6369C65.9929 32.4209 65.5729 32.1209 65.5729 31.7369L67.3729 28.9649C68.0689 29.2769 69.0289 29.4929 70.2529 29.6129C71.5009 29.7089 73.1449 29.7569 75.1849 29.7569H78.6409C79.7689 29.7569 80.5129 29.4929 80.8729 28.9649C81.2329 28.4129 81.4129 27.8249 81.4129 27.2009V14.9249L81.1249 12.0449H86.1649V26.7689C86.1649 27.9689 86.0089 29.0609 85.6969 30.0449C85.4089 31.0289 84.7969 31.8089 83.8609 32.3849C82.9489 32.9369 81.5449 33.2129 79.6489 33.2129H75.0049ZM96.9328 33.2129L86.8888 12.0809H91.9288L98.6968 26.6609L99.6688 29.2529H99.9928L100.929 26.6609L107.769 12.0809H112.665L112.089 14.2409L102.693 33.2129H96.9328ZM113.757 33.2129V14.9249L113.397 12.0449H118.869L127.005 26.4449L135.429 12.0449H140.289V33.2129H135.537V19.7849H135.141L133.737 22.9169L129.201 31.0529H124.845L120.309 22.9169L118.869 19.7849H118.509V33.2129H113.757Z" fill="white"/>
<path d="M148.927 33.2129L149.287 30.3329V12.0449H154.039V29.7569H168.943L170.383 32.8169C170.383 32.9129 170.059 33.0089 169.411 33.1049C168.763 33.1769 167.647 33.2129 166.063 33.2129H148.927ZM175.011 33.2129C173.187 33.2129 171.867 32.7929 171.051 31.9529C170.235 31.0889 169.827 29.9129 169.827 28.4249C169.827 26.8649 170.247 25.6649 171.087 24.8249C171.951 23.9849 173.259 23.5649 175.011 23.5649H176.847C178.647 23.5649 180.267 23.6129 181.707 23.7089C183.147 23.8049 184.335 23.9009 185.271 23.9969V21.6209C185.271 21.4049 185.247 21.1889 185.199 20.9729C185.151 20.7329 185.007 20.5409 184.767 20.3969C184.527 20.2529 184.119 20.1809 183.543 20.1809H181.743C179.127 20.1809 176.943 20.2289 175.191 20.3249C173.439 20.3969 172.251 20.4689 171.627 20.5409L171.231 17.8049C171.231 17.4689 172.143 17.2649 173.967 17.1929C175.791 17.1209 178.839 17.0849 183.111 17.0849H184.911C186.111 17.0849 187.035 17.2529 187.683 17.5889C188.331 17.9249 188.787 18.3449 189.051 18.8489C189.339 19.3529 189.507 19.8689 189.555 20.3969C189.627 20.9009 189.663 21.3329 189.663 21.6929V33.2129H186.711L185.307 32.4929C184.299 32.6609 183.087 32.8289 181.671 32.9969C180.255 33.1409 178.635 33.2129 176.811 33.2129H175.011ZM175.947 30.1169H184.191C184.719 30.1169 185.031 30.0689 185.127 29.9729C185.223 29.8769 185.271 29.5769 185.271 29.0729V26.3009H175.947C175.299 26.3009 174.843 26.4569 174.579 26.7689C174.339 27.0809 174.219 27.5729 174.219 28.2449C174.219 28.9169 174.363 29.3969 174.651 29.6849C174.939 29.9729 175.371 30.1169 175.947 30.1169ZM196.048 33.2129C194.872 33.2129 193.948 33.0569 193.276 32.7449C192.628 32.4329 192.16 32.0369 191.872 31.5569C191.608 31.0769 191.44 30.5729 191.368 30.0449C191.32 29.5169 191.296 29.0369 191.296 28.6049V17.0849H195.688V28.6769C195.664 29.2049 195.832 29.5769 196.192 29.7929C196.576 30.0089 196.984 30.1169 197.416 30.1169H204.544C205.072 30.1169 205.384 30.0689 205.48 29.9729C205.576 29.8769 205.624 29.5649 205.624 29.0369V17.0849H210.016V33.2129H207.064L205.696 32.4929C204.736 32.6849 203.596 32.8529 202.276 32.9969C200.98 33.1409 199.516 33.2129 197.884 33.2129H196.048ZM211.803 33.2129V17.0849H214.755L216.195 17.8049C217.203 17.6129 218.415 17.4449 219.831 17.3009C221.247 17.1569 222.867 17.0849 224.691 17.0849H226.491C227.691 17.0849 228.615 17.2529 229.263 17.5889C229.911 17.9249 230.367 18.3449 230.631 18.8489C230.919 19.3529 231.087 19.8689 231.135 20.3969C231.207 20.9009 231.243 21.3329 231.243 21.6929V33.2129H226.851V21.6209C226.851 20.6609 226.275 20.1809 225.123 20.1809H217.275C216.819 20.1809 216.519 20.2289 216.375 20.3249C216.255 20.3969 216.195 20.6129 216.195 20.9729V33.2129H211.803ZM237.265 33.2129C236.065 33.2129 235.141 33.0569 234.493 32.7449C233.845 32.4329 233.377 32.0369 233.089 31.5569C232.825 31.0769 232.657 30.5729 232.585 30.0449C232.537 29.5169 232.513 29.0369 232.513 28.6049V21.6929C232.513 21.3329 232.537 20.9009 232.585 20.3969C232.657 19.8689 232.825 19.3529 233.089 18.8489C233.377 18.3449 233.845 17.9249 234.493 17.5889C235.165 17.2529 236.089 17.0849 237.265 17.0849H242.269C245.269 17.0849 247.393 17.1689 248.641 17.3369C249.913 17.4809 250.549 17.6369 250.549 17.8049L249.829 20.5409C249.157 20.4929 248.305 20.4449 247.273 20.3969C246.241 20.3249 245.125 20.2769 243.925 20.2529C242.749 20.2049 241.597 20.1809 240.469 20.1809H238.633C237.481 20.1809 236.905 20.6609 236.905 21.6209V28.6769C236.881 29.6369 237.457 30.1169 238.633 30.1169H240.469C241.765 30.1169 243.025 30.1049 244.249 30.0809C245.497 30.0329 246.637 29.9849 247.669 29.9369C248.701 29.8649 249.529 29.8049 250.153 29.7569L251.593 32.0969C251.593 32.8409 249.229 33.2129 244.501 33.2129H237.265ZM251.587 33.2129V9.88489H255.979V17.8049C256.987 17.6129 258.199 17.4449 259.615 17.3009C261.031 17.1569 262.651 17.0849 264.475 17.0849H266.275C267.475 17.0849 268.399 17.2529 269.047 17.5889C269.695 17.9249 270.151 18.3449 270.415 18.8489C270.703 19.3529 270.871 19.8689 270.919 20.3969C270.991 20.9009 271.027 21.3329 271.027 21.6929V33.2129H266.635V21.6209C266.635 20.6609 266.059 20.1809 264.907 20.1809H257.059C256.603 20.1809 256.303 20.2289 256.159 20.3249C256.039 20.3969 255.979 20.6129 255.979 20.9729V33.2129H251.587ZM272.657 39.9089V17.0849H275.609L276.509 17.5529C277.589 17.4329 278.873 17.3249 280.361 17.2289C281.873 17.1329 283.589 17.0849 285.509 17.0849H287.345C288.545 17.0849 289.469 17.2409 290.117 17.5529C290.765 17.8649 291.221 18.2609 291.485 18.7409C291.773 19.2209 291.941 19.7249 291.989 20.2529C292.061 20.7809 292.097 21.2609 292.097 21.6929V28.6049C292.097 28.9649 292.061 29.4089 291.989 29.9369C291.941 30.4409 291.773 30.9449 291.485 31.4489C291.221 31.9529 290.765 32.3729 290.117 32.7089C289.469 33.0449 288.545 33.2129 287.345 33.2129H285.509C283.685 33.2129 282.065 33.1649 280.649 33.0689C279.233 32.9729 278.033 32.8769 277.049 32.7809V39.9089H272.657ZM278.165 30.1169H285.977C286.433 30.1169 286.829 29.9969 287.165 29.7569C287.525 29.5169 287.705 29.1569 287.705 28.6769V21.6209C287.729 21.0929 287.597 20.7209 287.309 20.5049C287.045 20.2889 286.601 20.1809 285.977 20.1809H284.177C282.641 20.1809 281.273 20.2169 280.073 20.2889C278.897 20.3369 277.889 20.3969 277.049 20.4689V29.0009C277.049 29.5289 277.097 29.8529 277.193 29.9729C277.313 30.0689 277.637 30.1169 278.165 30.1169ZM298.195 33.2129C296.371 33.2129 295.051 32.7929 294.235 31.9529C293.419 31.0889 293.011 29.9129 293.011 28.4249C293.011 26.8649 293.431 25.6649 294.271 24.8249C295.135 23.9849 296.443 23.5649 298.195 23.5649H300.031C301.831 23.5649 303.451 23.6129 304.891 23.7089C306.331 23.8049 307.519 23.9009 308.455 23.9969V21.6209C308.455 21.4049 308.431 21.1889 308.383 20.9729C308.335 20.7329 308.191 20.5409 307.951 20.3969C307.711 20.2529 307.303 20.1809 306.727 20.1809H304.927C302.311 20.1809 300.127 20.2289 298.375 20.3249C296.623 20.3969 295.435 20.4689 294.811 20.5409L294.415 17.8049C294.415 17.4689 295.327 17.2649 297.151 17.1929C298.975 17.1209 302.023 17.0849 306.295 17.0849H308.095C309.295 17.0849 310.219 17.2529 310.867 17.5889C311.515 17.9249 311.971 18.3449 312.235 18.8489C312.523 19.3529 312.691 19.8689 312.739 20.3969C312.811 20.9009 312.847 21.3329 312.847 21.6929V33.2129H309.895L308.491 32.4929C307.483 32.6609 306.271 32.8289 304.855 32.9969C303.439 33.1409 301.819 33.2129 299.995 33.2129H298.195ZM299.131 30.1169H307.375C307.903 30.1169 308.215 30.0689 308.311 29.9729C308.407 29.8769 308.455 29.5769 308.455 29.0729V26.3009H299.131C298.483 26.3009 298.027 26.4569 297.763 26.7689C297.523 27.0809 297.403 27.5729 297.403 28.2449C297.403 28.9169 297.547 29.3969 297.835 29.6849C298.123 29.9729 298.555 30.1169 299.131 30.1169ZM318.873 33.2129C317.673 33.2129 316.749 33.0569 316.101 32.7449C315.453 32.4329 314.985 32.0369 314.697 31.5569C314.433 31.0769 314.265 30.5729 314.193 30.0449C314.145 29.5169 314.121 29.0369 314.121 28.6049V21.6929C314.121 21.3329 314.145 20.9009 314.193 20.3969C314.265 19.8689 314.433 19.3529 314.697 18.8489C314.985 18.3449 315.453 17.9249 316.101 17.5889C316.773 17.2529 317.697 17.0849 318.873 17.0849H320.709C322.917 17.0849 324.693 17.1329 326.037 17.2289C327.405 17.3009 328.449 17.3849 329.169 17.4809V10.3889H333.561V33.2129H330.609L329.205 32.4929C328.197 32.6609 326.985 32.8289 325.569 32.9969C324.153 33.1409 322.521 33.2129 320.673 33.2129H318.873ZM320.241 30.1169H328.053C328.557 30.1169 328.869 30.0569 328.989 29.9369C329.109 29.8169 329.169 29.5169 329.169 29.0369V20.4329C328.353 20.3849 327.321 20.3369 326.073 20.2889C324.825 20.2169 323.493 20.1809 322.077 20.1809H320.241C319.089 20.1809 318.513 20.6609 318.513 21.6209V28.6769C318.513 29.6369 319.089 30.1169 320.241 30.1169Z" fill="#E63946"/>
<rect y="21.2129" width="30" height="30" transform="rotate(-45 0 21.2129)" fill="#E63946"/>
</svg>
