<svg width="347" height="45" viewBox="0 0 347 45" fill="none" xmlns="http://www.w3.org/2000/svg">
<path d="M75.0049 33.2134C73.2769 33.2134 71.6929 33.1774 70.2529 33.1054C68.8369 33.0094 67.6969 32.8534 66.8329 32.6374C65.9929 32.4214 65.5729 32.1214 65.5729 31.7374L67.3729 28.9654C68.0689 29.2774 69.0289 29.4934 70.2529 29.6134C71.5009 29.7094 73.1449 29.7574 75.1849 29.7574H78.6409C79.7689 29.7574 80.5129 29.4934 80.8729 28.9654C81.2329 28.4134 81.4129 27.8254 81.4129 27.2014V14.9254L81.1249 12.0454H86.1649V26.7694C86.1649 27.9694 86.0089 29.0614 85.6969 30.0454C85.4089 31.0294 84.7969 31.8094 83.8609 32.3854C82.9489 32.9374 81.5449 33.2134 79.6489 33.2134H75.0049ZM96.9328 33.2134L86.8888 12.0814H91.9288L98.6968 26.6614L99.6688 29.2534H99.9928L100.929 26.6614L107.769 12.0814H112.665L112.089 14.2414L102.693 33.2134H96.9328ZM113.757 33.2134V14.9254L113.397 12.0454H118.869L127.005 26.4454L135.429 12.0454H140.289V33.2134H135.537V19.7854H135.141L133.737 22.9174L129.201 31.0534H124.845L120.309 22.9174L118.869 19.7854H118.509V33.2134H113.757Z" fill="white"/>
<path d="M148.927 33.2134L149.287 30.3334V12.0454H154.039V29.7574H168.943L170.383 32.8174C170.383 32.9134 170.059 33.0094 169.411 33.1054C168.763 33.1774 167.647 33.2134 166.063 33.2134H148.927ZM175.011 33.2134C173.187 33.2134 171.867 32.7934 171.051 31.9534C170.235 31.0894 169.827 29.9134 169.827 28.4254C169.827 26.8654 170.247 25.6654 171.087 24.8254C171.951 23.9854 173.259 23.5654 175.011 23.5654H176.847C178.647 23.5654 180.267 23.6134 181.707 23.7094C183.147 23.8054 184.335 23.9014 185.271 23.9974V21.6214C185.271 21.4054 185.247 21.1894 185.199 20.9734C185.151 20.7334 185.007 20.5414 184.767 20.3974C184.527 20.2534 184.119 20.1814 183.543 20.1814H181.743C179.127 20.1814 176.943 20.2294 175.191 20.3254C173.439 20.3974 172.251 20.4694 171.627 20.5414L171.231 17.8054C171.231 17.4694 172.143 17.2654 173.967 17.1934C175.791 17.1214 178.839 17.0854 183.111 17.0854H184.911C186.111 17.0854 187.035 17.2534 187.683 17.5894C188.331 17.9254 188.787 18.3454 189.051 18.8494C189.339 19.3534 189.507 19.8694 189.555 20.3974C189.627 20.9014 189.663 21.3334 189.663 21.6934V33.2134H186.711L185.307 32.4934C184.299 32.6614 183.087 32.8294 181.671 32.9974C180.255 33.1414 178.635 33.2134 176.811 33.2134H175.011ZM175.947 30.1174H184.191C184.719 30.1174 185.031 30.0694 185.127 29.9734C185.223 29.8774 185.271 29.5774 185.271 29.0734V26.3014H175.947C175.299 26.3014 174.843 26.4574 174.579 26.7694C174.339 27.0814 174.219 27.5734 174.219 28.2454C174.219 28.9174 174.363 29.3974 174.651 29.6854C174.939 29.9734 175.371 30.1174 175.947 30.1174ZM196.048 33.2134C194.872 33.2134 193.948 33.0574 193.276 32.7454C192.628 32.4334 192.16 32.0374 191.872 31.5574C191.608 31.0774 191.44 30.5734 191.368 30.0454C191.32 29.5174 191.296 29.0374 191.296 28.6054V17.0854H195.688V28.6774C195.664 29.2054 195.832 29.5774 196.192 29.7934C196.576 30.0094 196.984 30.1174 197.416 30.1174H204.544C205.072 30.1174 205.384 30.0694 205.48 29.9734C205.576 29.8774 205.624 29.5654 205.624 29.0374V17.0854H210.016V33.2134H207.064L205.696 32.4934C204.736 32.6854 203.596 32.8534 202.276 32.9974C200.98 33.1414 199.516 33.2134 197.884 33.2134H196.048ZM211.803 33.2134V17.0854H214.755L216.195 17.8054C217.203 17.6134 218.415 17.4454 219.831 17.3014C221.247 17.1574 222.867 17.0854 224.691 17.0854H226.491C227.691 17.0854 228.615 17.2534 229.263 17.5894C229.911 17.9254 230.367 18.3454 230.631 18.8494C230.919 19.3534 231.087 19.8694 231.135 20.3974C231.207 20.9014 231.243 21.3334 231.243 21.6934V33.2134H226.851V21.6214C226.851 20.6614 226.275 20.1814 225.123 20.1814H217.275C216.819 20.1814 216.519 20.2294 216.375 20.3254C216.255 20.3974 216.195 20.6134 216.195 20.9734V33.2134H211.803ZM237.265 33.2134C236.065 33.2134 235.141 33.0574 234.493 32.7454C233.845 32.4334 233.377 32.0374 233.089 31.5574C232.825 31.0774 232.657 30.5734 232.585 30.0454C232.537 29.5174 232.513 29.0374 232.513 28.6054V21.6934C232.513 21.3334 232.537 20.9014 232.585 20.3974C232.657 19.8694 232.825 19.3534 233.089 18.8494C233.377 18.3454 233.845 17.9254 234.493 17.5894C235.165 17.2534 236.089 17.0854 237.265 17.0854H242.269C245.269 17.0854 247.393 17.1694 248.641 17.3374C249.913 17.4814 250.549 17.6374 250.549 17.8054L249.829 20.5414C249.157 20.4934 248.305 20.4454 247.273 20.3974C246.241 20.3254 245.125 20.2774 243.925 20.2534C242.749 20.2054 241.597 20.1814 240.469 20.1814H238.633C237.481 20.1814 236.905 20.6614 236.905 21.6214V28.6774C236.881 29.6374 237.457 30.1174 238.633 30.1174H240.469C241.765 30.1174 243.025 30.1054 244.249 30.0814C245.497 30.0334 246.637 29.9854 247.669 29.9374C248.701 29.8654 249.529 29.8054 250.153 29.7574L251.593 32.0974C251.593 32.8414 249.229 33.2134 244.501 33.2134H237.265ZM251.587 33.2134V9.88538H255.979V17.8054C256.987 17.6134 258.199 17.4454 259.615 17.3014C261.031 17.1574 262.651 17.0854 264.475 17.0854H266.275C267.475 17.0854 268.399 17.2534 269.047 17.5894C269.695 17.9254 270.151 18.3454 270.415 18.8494C270.703 19.3534 270.871 19.8694 270.919 20.3974C270.991 20.9014 271.027 21.3334 271.027 21.6934V33.2134H266.635V21.6214C266.635 20.6614 266.059 20.1814 264.907 20.1814H257.059C256.603 20.1814 256.303 20.2294 256.159 20.3254C256.039 20.3974 255.979 20.6134 255.979 20.9734V33.2134H251.587ZM272.657 39.9094V17.0854H275.609L276.509 17.5534C277.589 17.4334 278.873 17.3254 280.361 17.2294C281.873 17.1334 283.589 17.0854 285.509 17.0854H287.345C288.545 17.0854 289.469 17.2414 290.117 17.5534C290.765 17.8654 291.221 18.2614 291.485 18.7414C291.773 19.2214 291.941 19.7254 291.989 20.2534C292.061 20.7814 292.097 21.2614 292.097 21.6934V28.6054C292.097 28.9654 292.061 29.4094 291.989 29.9374C291.941 30.4414 291.773 30.9454 291.485 31.4494C291.221 31.9534 290.765 32.3734 290.117 32.7094C289.469 33.0454 288.545 33.2134 287.345 33.2134H285.509C283.685 33.2134 282.065 33.1654 280.649 33.0694C279.233 32.9734 278.033 32.8774 277.049 32.7814V39.9094H272.657ZM278.165 30.1174H285.977C286.433 30.1174 286.829 29.9974 287.165 29.7574C287.525 29.5174 287.705 29.1574 287.705 28.6774V21.6214C287.729 21.0934 287.597 20.7214 287.309 20.5054C287.045 20.2894 286.601 20.1814 285.977 20.1814H284.177C282.641 20.1814 281.273 20.2174 280.073 20.2894C278.897 20.3374 277.889 20.3974 277.049 20.4694V29.0014C277.049 29.5294 277.097 29.8534 277.193 29.9734C277.313 30.0694 277.637 30.1174 278.165 30.1174ZM298.195 33.2134C296.371 33.2134 295.051 32.7934 294.235 31.9534C293.419 31.0894 293.011 29.9134 293.011 28.4254C293.011 26.8654 293.431 25.6654 294.271 24.8254C295.135 23.9854 296.443 23.5654 298.195 23.5654H300.031C301.831 23.5654 303.451 23.6134 304.891 23.7094C306.331 23.8054 307.519 23.9014 308.455 23.9974V21.6214C308.455 21.4054 308.431 21.1894 308.383 20.9734C308.335 20.7334 308.191 20.5414 307.951 20.3974C307.711 20.2534 307.303 20.1814 306.727 20.1814H304.927C302.311 20.1814 300.127 20.2294 298.375 20.3254C296.623 20.3974 295.435 20.4694 294.811 20.5414L294.415 17.8054C294.415 17.4694 295.327 17.2654 297.151 17.1934C298.975 17.1214 302.023 17.0854 306.295 17.0854H308.095C309.295 17.0854 310.219 17.2534 310.867 17.5894C311.515 17.9254 311.971 18.3454 312.235 18.8494C312.523 19.3534 312.691 19.8694 312.739 20.3974C312.811 20.9014 312.847 21.3334 312.847 21.6934V33.2134H309.895L308.491 32.4934C307.483 32.6614 306.271 32.8294 304.855 32.9974C303.439 33.1414 301.819 33.2134 299.995 33.2134H298.195ZM299.131 30.1174H307.375C307.903 30.1174 308.215 30.0694 308.311 29.9734C308.407 29.8774 308.455 29.5774 308.455 29.0734V26.3014H299.131C298.483 26.3014 298.027 26.4574 297.763 26.7694C297.523 27.0814 297.403 27.5734 297.403 28.2454C297.403 28.9174 297.547 29.3974 297.835 29.6854C298.123 29.9734 298.555 30.1174 299.131 30.1174ZM318.873 33.2134C317.673 33.2134 316.749 33.0574 316.101 32.7454C315.453 32.4334 314.985 32.0374 314.697 31.5574C314.433 31.0774 314.265 30.5734 314.193 30.0454C314.145 29.5174 314.121 29.0374 314.121 28.6054V21.6934C314.121 21.3334 314.145 20.9014 314.193 20.3974C314.265 19.8694 314.433 19.3534 314.697 18.8494C314.985 18.3454 315.453 17.9254 316.101 17.5894C316.773 17.2534 317.697 17.0854 318.873 17.0854H320.709C322.917 17.0854 324.693 17.1334 326.037 17.2294C327.405 17.3014 328.449 17.3854 329.169 17.4814V10.3894H333.561V33.2134H330.609L329.205 32.4934C328.197 32.6614 326.985 32.8294 325.569 32.9974C324.153 33.1414 322.521 33.2134 320.673 33.2134H318.873ZM320.241 30.1174H328.053C328.557 30.1174 328.869 30.0574 328.989 29.9374C329.109 29.8174 329.169 29.5174 329.169 29.0374V20.4334C328.353 20.3854 327.321 20.3374 326.073 20.2894C324.825 20.2174 323.493 20.1814 322.077 20.1814H320.241C319.089 20.1814 318.513 20.6614 318.513 21.6214V28.6774C318.513 29.6374 319.089 30.1174 320.241 30.1174Z" fill="#E63946"/>
<rect y="21.2134" width="30" height="30" transform="rotate(-45 0 21.2134)" fill="#E63946"/>
</svg>
